<?xml version="1.0" standalone="no"?>
<!DOCTYPE svg PUBLIC "-//W3C//DTD SVG 20010904//EN"
 "http://www.w3.org/TR/2001/REC-SVG-20010904/DTD/svg10.dtd">
<svg version="1.0" xmlns="http://www.w3.org/2000/svg"
 width="566.000000pt" height="311.000000pt" viewBox="0 0 566.000000 311.000000"
 preserveAspectRatio="xMidYMid meet">

<g transform="translate(0.000000,311.000000) scale(0.100000,-0.100000)"
fill="#000000" stroke="none">
<path d="M3641 3057 c-6 -8 -16 -49 -22 -93 -12 -92 -92 -341 -137 -430 -85
-169 -363 -435 -586 -563 -100 -57 -134 -62 -176 -24 -67 60 -51 168 62 408
77 162 99 250 62 243 -29 -5 -122 -153 -146 -233 -20 -66 -27 -76 -132 -181
-183 -184 -376 -311 -432 -285 -13 6 -29 23 -35 38 -36 96 82 385 247 602 112
148 118 161 74 161 -54 0 -281 -344 -339 -513 -27 -78 -45 -205 -37 -252 11
-55 54 -95 103 -95 53 0 159 53 263 131 180 136 191 143 201 128 5 -8 9 -36 9
-62 0 -136 106 -194 252 -136 176 69 505 359 617 543 76 127 165 400 178 547
6 67 -4 92 -26 66z"/>
<path d="M947 2978 c-19 -24 -103 -146 -188 -273 -252 -377 -417 -585 -465
-585 -25 0 -70 -37 -83 -68 -14 -34 -11 -104 5 -109 6 -2 42 17 80 43 l69 46
120 -6 c66 -3 179 -10 250 -16 152 -12 369 1 515 29 95 19 95 19 137 -1 61
-30 175 -22 235 17 52 34 232 214 272 273 l28 41 -26 23 c-15 13 -39 46 -54
73 -24 45 -31 50 -65 53 -28 2 -55 -6 -109 -35 -106 -56 -174 -128 -237 -254
-30 -57 -55 -105 -56 -107 -2 -2 -63 -15 -137 -30 -121 -23 -155 -26 -368 -26
-245 0 -351 13 -407 49 l-24 16 21 36 c11 19 90 133 174 252 258 363 385 568
370 593 -10 16 -23 8 -57 -34z m847 -554 c20 -52 -12 -87 -75 -82 -56 4 -63
27 -19 68 36 33 84 40 94 14z m-124 -134 c92 -14 110 -19 110 -30 0 -13 -165
-135 -232 -170 -60 -32 -98 -33 -98 -3 0 8 21 60 47 114 52 112 45 109 173 89z"/>
<path d="M4714 2877 c-94 -69 -214 -216 -379 -462 -208 -311 -274 -476 -214
-531 32 -29 215 -28 279 2 54 25 193 134 216 169 35 54 0 41 -143 -52 -162
-106 -250 -127 -304 -74 -16 16 -29 35 -29 42 0 21 118 130 210 193 165 114
349 328 434 505 104 218 72 313 -70 208z m80 -57 c-1 -59 -96 -243 -178 -346
-111 -138 -356 -339 -364 -299 -7 32 162 288 317 483 85 107 197 215 215 209
6 -2 11 -23 10 -47z"/>
<path d="M5308 2734 c-58 -84 -170 -214 -344 -400 -412 -439 -495 -537 -635
-747 -154 -229 -225 -386 -236 -517 -7 -82 12 -125 64 -147 114 -47 368 87
570 301 154 163 236 334 237 496 0 47 -6 103 -13 125 -14 39 -14 39 22 70 19
16 88 59 154 94 207 112 297 180 278 211 -7 12 -35 -1 -165 -81 -119 -72 -251
-135 -319 -151 -48 -11 -55 -10 -111 17 -33 16 -60 31 -60 34 0 3 121 127 268
275 294 296 365 381 360 430 -5 49 -32 45 -70 -10z m-431 -869 c64 -45 56
-231 -16 -374 -136 -268 -620 -616 -695 -498 -24 38 -27 81 -11 158 17 85 87
213 242 446 104 157 182 249 228 269 44 19 224 18 252 -1z"/>
<path d="M3765 2357 c-124 -67 -235 -208 -270 -343 -36 -139 35 -180 184 -105
70 36 140 98 225 200 36 43 82 86 101 95 34 17 48 45 23 47 -7 1 -20 3 -28 4
-8 1 -20 3 -27 4 -7 0 -17 19 -23 40 -12 47 -60 91 -98 91 -15 0 -54 -15 -87
-33z m114 -51 c7 -8 11 -29 9 -47 -2 -28 -9 -36 -40 -47 -45 -17 -88 -9 -88
16 0 19 39 61 75 80 26 15 30 15 44 -2z m-129 -142 c73 -9 90 -14 90 -28 0
-21 -132 -140 -183 -165 -66 -32 -115 -38 -124 -16 -17 45 116 235 154 221 9
-4 38 -9 63 -12z"/>
<path d="M1074 1729 c-157 -15 -443 -73 -521 -105 -62 -26 -45 -40 152 -119
226 -92 330 -150 405 -225 111 -110 137 -198 83 -278 -63 -92 -206 -170 -345
-187 -68 -9 -216 16 -302 51 -73 29 -146 86 -146 114 0 11 14 35 31 55 39 44
34 53 -12 22 -112 -75 -27 -196 178 -253 78 -22 286 -30 366 -14 145 28 245
101 274 199 19 65 13 172 -12 225 -39 82 -164 174 -362 267 -182 85 -216 103
-217 114 -4 41 540 115 668 91 78 -15 102 -83 45 -131 -39 -32 -32 -42 15 -20
79 38 108 109 64 159 -38 44 -160 55 -364 35z"/>
<path d="M1870 1615 c-7 -8 -10 -25 -6 -40 5 -20 13 -25 36 -25 35 0 40 21 14
58 -18 26 -27 27 -44 7z"/>
<path d="M2790 1284 c-68 -18 -129 -55 -278 -167 -116 -87 -305 -191 -369
-203 -54 -11 -43 27 47 161 79 117 114 185 102 197 -17 17 -96 -16 -217 -92
-61 -38 -116 -70 -123 -70 -6 0 -14 21 -17 48 -10 77 -15 94 -28 89 -7 -2 -16
-17 -20 -33 -22 -74 -52 -116 -113 -160 -117 -84 -325 -177 -346 -156 -10 10
33 71 112 162 108 123 145 190 105 190 -32 0 -232 -225 -276 -312 -11 -22 -19
-52 -17 -66 6 -52 81 -41 308 46 57 22 108 38 112 36 5 -3 -8 -26 -27 -51 -40
-52 -43 -63 -17 -63 25 0 77 39 182 135 140 127 232 180 215 123 -4 -13 -29
-62 -57 -109 -53 -94 -63 -135 -36 -152 27 -18 96 5 255 82 l142 70 27 -37
c48 -63 50 -63 154 -58 53 3 104 8 115 11 11 4 -9 -19 -45 -51 -149 -132 -337
-331 -397 -422 -59 -88 -103 -193 -103 -247 0 -36 21 -85 40 -95 30 -16 88
-12 128 9 100 51 207 216 408 630 l89 184 139 68 c76 38 148 69 161 69 20 0
23 -6 28 -54 8 -75 30 -114 80 -137 52 -23 144 -25 217 -3 109 32 220 95 220
124 0 20 -40 9 -142 -37 -116 -52 -203 -68 -227 -39 -11 13 -5 22 39 63 64 59
140 205 148 284 l5 52 -47 -5 c-31 -4 -64 -17 -99 -42 -29 -20 -81 -56 -117
-81 -80 -56 -234 -132 -275 -137 -29 -3 -30 -1 -29 34 1 25 12 52 38 87 48 64
46 98 -4 123 -42 22 -115 22 -190 2z m154 -40 c23 -9 20 -22 -14 -50 -16 -14
-43 -48 -59 -77 -57 -101 -119 -146 -227 -167 -87 -17 -118 -11 -122 22 -2 15
4 41 14 59 21 42 108 133 151 161 72 44 207 71 257 52z m504 -26 c6 -52 -166
-269 -202 -255 -42 16 10 123 109 225 65 66 88 74 93 30z m-718 -417 c0 -46
-155 -352 -243 -481 -67 -98 -183 -200 -226 -200 -26 0 -35 34 -28 105 11 104
87 222 262 404 103 107 200 191 223 191 6 0 12 -9 12 -19z"/>
</g>
</svg>
