<?xml version="1.0" standalone="no"?>
<!DOCTYPE svg PUBLIC "-//W3C//DTD SVG 20010904//EN"
 "http://www.w3.org/TR/2001/REC-SVG-20010904/DTD/svg10.dtd">
<svg version="1.0" xmlns="http://www.w3.org/2000/svg"
 width="225.000000pt" height="94.000000pt" viewBox="0 0 225.000000 94.000000"
 preserveAspectRatio="xMidYMid meet">

<g transform="translate(0.000000,94.000000) scale(0.100000,-0.100000)"
fill="#000000" stroke="none">
<path d="M1460 887 c0 -45 -42 -173 -72 -220 -37 -58 -146 -159 -213 -198 -58
-33 -68 -35 -90 -13 -23 23 -12 81 31 165 34 67 42 99 24 99 -12 0 -60 -82
-60 -102 0 -39 -175 -188 -221 -188 -58 0 -9 157 87 277 38 46 40 53 19 53
-15 0 -81 -93 -119 -169 -29 -57 -41 -133 -26 -161 20 -38 68 -26 147 35 39
30 74 55 77 55 3 0 6 -16 6 -35 0 -50 36 -72 90 -56 75 22 221 150 270 236 43
75 85 245 61 245 -6 0 -11 -10 -11 -23z"/>
<path d="M317 803 c-92 -144 -193 -278 -209 -278 -24 0 -48 -25 -48 -51 0 -30
10 -30 44 -3 26 20 32 21 134 10 100 -10 199 -5 275 14 14 4 28 2 31 -4 9 -14
61 -14 89 0 37 19 148 139 129 139 -10 0 -22 13 -29 30 -14 38 -33 38 -92 0
-34 -22 -55 -46 -73 -84 l-26 -53 -79 -15 c-105 -21 -303 -7 -303 22 0 4 43
67 96 140 83 117 134 197 134 215 0 21 -25 -7 -73 -82z m398 -169 c0 -13 -8
-20 -27 -22 -32 -4 -37 14 -10 34 22 17 37 12 37 -12z m-7 -50 c8 -6 -102 -84
-119 -84 -24 0 -24 4 2 57 l20 42 47 -6 c26 -3 48 -7 50 -9z"/>
<path d="M1866 798 c-61 -65 -178 -240 -202 -303 -24 -64 -13 -80 54 -79 38 1
60 8 89 30 80 59 87 90 7 34 -63 -44 -108 -58 -129 -40 -8 7 -15 17 -15 22 0
12 47 55 91 83 57 37 126 115 164 186 65 125 32 162 -59 67z m74 18 c0 -30
-41 -109 -82 -157 -39 -47 -126 -119 -143 -119 -19 0 103 179 168 248 43 44
57 51 57 28z"/>
<path d="M2139 763 c-13 -21 -64 -81 -114 -133 -189 -201 -223 -240 -292 -345
-95 -144 -111 -255 -37 -255 44 0 108 31 169 83 114 95 168 222 132 307 -5 11
15 26 78 59 84 44 124 75 112 87 -4 4 -30 -10 -59 -30 -30 -20 -77 -45 -105
-56 -46 -17 -55 -18 -79 -5 l-27 14 126 127 c126 126 148 157 129 176 -6 6
-18 -4 -33 -29z m-159 -353 c16 -31 11 -91 -12 -139 -46 -96 -215 -231 -276
-219 -26 5 -28 68 -2 118 30 59 107 178 142 220 27 31 36 35 84 37 44 1 56 -2
64 -17z"/>
<path d="M1540 631 c-51 -21 -98 -66 -119 -111 -27 -59 -25 -94 6 -98 32 -5
94 31 128 74 39 49 54 64 66 64 5 0 9 5 9 10 0 6 -8 10 -17 8 -12 -2 -19 4
-21 20 -4 25 -30 42 -52 33z m30 -50 c0 -12 -9 -20 -25 -23 -35 -7 -43 11 -14
33 26 20 39 16 39 -10z m-37 -43 c27 1 20 -14 -25 -52 -39 -34 -88 -48 -88
-26 0 6 11 29 25 51 22 33 30 39 48 33 12 -4 30 -7 40 -6z"/>
</g>
</svg>
