<?xml version="1.0" standalone="no"?>
<!DOCTYPE svg PUBLIC "-//W3C//DTD SVG 20010904//EN"
 "http://www.w3.org/TR/2001/REC-SVG-20010904/DTD/svg10.dtd">
<svg version="1.0" xmlns="http://www.w3.org/2000/svg"
 width="146.000000pt" height="72.000000pt" viewBox="0 0 146.000000 72.000000"
 preserveAspectRatio="xMidYMid meet">

<g transform="translate(0.000000,72.000000) scale(0.100000,-0.100000)"
fill="#000000" stroke="none">
<path d="M255 685 c-96 -17 -155 -34 -155 -44 0 -4 38 -23 86 -41 47 -18 102
-44 122 -58 44 -27 82 -79 82 -109 0 -54 -89 -112 -171 -113 -56 0 -131 24
-155 51 -16 18 -16 20 2 40 19 22 19 22 -4 10 -17 -9 -22 -19 -20 -39 7 -60
169 -98 270 -64 63 22 88 54 88 110 0 34 -6 57 -20 74 -25 33 -99 79 -172 108
-32 13 -58 27 -58 30 0 19 233 49 284 36 30 -7 35 -40 9 -55 -10 -6 -13 -11
-7 -11 7 0 22 8 34 18 27 22 20 57 -13 66 -35 9 -126 5 -202 -9z"/>
<path d="M657 653 c-12 -12 -7 -33 8 -33 17 0 19 9 7 28 -5 7 -11 9 -15 5z"/>
<path d="M995 499 c-21 -12 -59 -38 -85 -59 -40 -35 -126 -80 -151 -80 -16 0
-10 14 31 75 22 33 40 63 40 68 0 16 -35 5 -84 -28 -29 -19 -56 -35 -60 -35
-3 0 -6 14 -6 30 0 17 -4 30 -10 30 -5 0 -10 -9 -10 -20 0 -12 -11 -32 -24
-45 -37 -37 -166 -98 -166 -78 0 5 22 34 50 65 48 54 63 84 38 76 -7 -3 -37
-32 -65 -66 -85 -100 -67 -126 52 -77 72 30 84 31 62 7 -42 -46 -7 -42 41 4
53 52 100 86 111 82 6 -1 -3 -24 -20 -50 -54 -82 -26 -92 90 -33 l54 27 17
-23 c15 -19 23 -21 66 -16 l49 7 -25 -21 c-146 -122 -222 -230 -206 -294 5
-20 13 -25 36 -25 47 0 93 56 167 206 l67 136 58 29 c67 34 78 35 76 12 -4
-50 22 -73 83 -73 30 0 115 35 125 52 12 19 -3 17 -51 -7 -50 -26 -90 -32
-100 -16 -3 6 4 15 15 21 21 11 53 67 64 113 6 24 3 27 -17 27 -13 0 -41 -15
-63 -34 -35 -30 -123 -76 -145 -76 -16 0 -10 26 12 54 17 21 19 29 9 41 -18
22 -79 18 -125 -6z m105 -9 c0 -5 -4 -10 -8 -10 -5 0 -17 -16 -28 -35 -23 -44
-50 -63 -103 -71 -37 -6 -41 -4 -41 14 0 27 41 75 82 95 37 18 98 23 98 7z
m200 -8 c0 -20 -65 -102 -81 -102 -20 0 -7 39 27 78 39 46 54 52 54 24z m-325
-245 c-21 -39 -49 -90 -64 -113 -29 -45 -89 -97 -102 -88 -14 8 -11 53 6 88
33 69 184 223 193 197 2 -6 -13 -44 -33 -84z"/>
</g>
</svg>
